<svg width="28" height="28" viewBox="0 0 28 28" fill="none" xmlns="http://www.w3.org/2000/svg">
<path d="M14.0003 9.29245C12.4537 9.31487 11.1106 9.81854 10.0972 10.833C9.11287 11.8174 8.58295 13.1266 8.60537 14.5211C8.64803 17.2681 8.39155 20.0172 7.83975 22.6909C7.74077 23.1645 8.04647 23.6271 8.51842 23.725C8.98326 23.8158 9.45302 23.5188 9.55255 23.0447C10.13 20.2463 10.4002 17.3692 10.3559 14.4943C10.3422 13.5772 10.689 12.717 11.3354 12.0711C12.3558 11.0506 13.647 11.043 14.0013 11.043C16.0313 11.0731 17.6331 12.694 17.6637 14.6556C17.7064 17.4103 17.5013 20.1714 17.0556 22.862C16.9769 23.3389 17.2984 23.789 17.7753 23.8678C17.8251 23.8765 17.8726 23.8798 17.9208 23.8798C18.3413 23.8798 18.7121 23.5763 18.7821 23.1475C19.2453 20.3541 19.4569 17.4885 19.4143 14.6278C19.3667 11.7293 16.9637 9.33619 14.0003 9.29245ZM13.9953 14.0005C13.5119 14.0081 13.1274 14.4057 13.134 14.8892C13.1953 18.9027 12.6845 22.8183 11.6148 26.6508L11.5481 26.8876C11.4469 27.2502 11.6432 27.9999 12.3908 27.9999C12.7736 27.9999 13.1242 27.7478 13.2335 27.3623L13.3003 27.1233C14.4164 23.1267 14.9496 19.0438 14.8845 14.8618C14.8769 14.3784 14.4345 13.9923 13.9953 14.0005ZM6.16141 8.19159C4.78384 9.8858 4.04392 12.0257 4.07837 14.2154C4.11228 16.3788 3.93509 18.5434 3.55392 20.6472C3.46861 21.123 3.78306 21.5785 4.25993 21.6649C4.31298 21.6742 4.36439 21.6786 4.41689 21.6786C4.83032 21.6786 5.19946 21.3822 5.27657 20.96C5.67797 18.7435 5.86281 16.4658 5.82836 14.1886C5.79938 12.3834 6.38562 10.6914 7.51874 9.29573C7.82444 8.92057 7.76647 8.36932 7.39241 8.06471C7.01781 7.7612 6.46765 7.81479 6.16141 8.19159ZM27.9936 13.826C27.9799 12.9237 27.8738 12.0197 27.6791 11.1387C27.5747 10.6678 27.1137 10.3731 26.6368 10.4731C26.1654 10.5776 25.8663 11.0441 25.9702 11.5166C26.1392 12.2822 26.2316 13.0692 26.2436 13.8534C26.2502 14.2723 26.2524 14.6906 26.2485 15.1096C26.2452 15.5924 26.633 15.9873 27.1164 15.9911H27.123C27.6031 15.9911 27.9947 15.6039 27.998 15.1232C28.0018 14.6906 28.0002 14.2586 27.9936 13.826ZM13.8143 0.0026816C9.98786 -0.0705996 6.47093 1.36057 3.84595 3.98721C1.31503 6.51979 -0.0472212 9.88526 0.00910652 13.464C0.015669 13.8769 0.0123877 14.2892 0.000356583 14.701C-0.0133152 15.1839 0.367854 15.587 0.851288 15.6006H0.87535C1.34675 15.6006 1.73667 15.2249 1.75034 14.7503C1.76237 14.3128 1.76566 13.8742 1.75909 13.4361C1.70988 10.3359 2.89057 7.4183 5.08298 5.22424C7.3678 2.93612 10.4915 1.70401 13.7864 1.75268C17.871 1.81229 21.7089 3.84338 24.0539 7.18424C24.3339 7.57963 24.8808 7.67479 25.2724 7.39807C25.6688 7.12026 25.7645 6.57502 25.4862 6.17963C22.8202 2.37995 18.4573 0.071041 13.8143 0.0026816ZM13.8843 4.64729C13.0526 4.63337 12.2224 4.72358 11.413 4.91581C10.9432 5.02682 10.6523 5.49877 10.7639 5.96909C10.8749 6.4383 11.3518 6.7276 11.8166 6.61768C12.4794 6.46127 13.1887 6.38526 13.857 6.39729C18.384 6.46401 22.1213 10.092 22.1896 14.485C22.2236 16.6534 22.1164 18.8376 21.8719 20.9764C21.8172 21.4566 22.1623 21.8897 22.6425 21.9444C22.6764 21.9488 22.7092 21.9504 22.7431 21.9504C23.1806 21.9504 23.5601 21.6212 23.611 21.1744C23.8636 18.9612 23.973 16.7015 23.9391 14.4577C23.8576 9.12893 19.3459 4.72768 13.8843 4.64729Z" fill="#F6A721"/>
</svg>
